<?xml version="1.0" encoding="utf-8"?>
<!-- Generator: Adobe Illustrator 22.0.1, SVG Export Plug-In . SVG Version: 6.00 Build 0)  -->
<svg version="1.1" id="Layer_1" xmlns="http://www.w3.org/2000/svg" xmlns:xlink="http://www.w3.org/1999/xlink" x="0px" y="0px"
	 viewBox="0 0 400 400" style="enable-background:new 0 0 400 400;" xml:space="preserve">
<path d="M119.3,193.3c3.2-39.4,34.6-70.7,74-74V98.7c0-3.7,3-6.7,6.8-6.7c3.7,0,6.8,3.1,6.8,6.7v20.6c39.4,3.2,70.7,34.6,74,74h20.6
	c3.7,0,6.7,3,6.7,6.8c0,3.7-3.1,6.8-6.7,6.8h-20.6c-3.2,39.4-34.6,70.7-74,74v20.6c0,3.7-3,6.7-6.8,6.7c-3.7,0-6.8-3.1-6.8-6.7
	v-20.6c-39.4-3.2-70.7-34.6-74-74H98.7c-3.7,0-6.7-3-6.7-6.8c0-3.7,3.1-6.8,6.7-6.8H119.3z M200,267.5c37.3,0,67.5-30.2,67.5-67.5
	s-30.2-67.5-67.5-67.5s-67.5,30.2-67.5,67.5S162.7,267.5,200,267.5z M200,206.8c-3.7,0-6.8-3-6.8-6.8s3-6.8,6.8-6.8s6.8,3,6.8,6.8
	S203.7,206.8,200,206.8z"/>
</svg>
